<svg width="124" height="37" viewBox="0 0 124 37" fill="none" xmlns="http://www.w3.org/2000/svg">
<g clip-path="url(#clip0_997_169)">
<path d="M76.9103 28.9056C69.7131 34.1502 59.2811 36.9483 50.2994 36.9483C37.7056 36.9483 26.3679 32.3434 17.7905 24.6844C17.1166 24.0822 17.7204 23.2614 18.5291 23.7304C27.7858 29.0549 39.2313 32.2581 51.0542 32.2581C59.0277 32.2581 67.7992 30.6272 75.8644 27.2427C77.0828 26.7311 78.1018 28.0315 76.9103 28.9056Z" fill="white"/>
<path d="M79.9023 25.5212C78.9858 24.3593 73.821 24.9722 71.5028 25.244C70.7966 25.3293 70.6888 24.7217 71.3249 24.2847C75.4384 21.4226 82.1882 22.2487 82.9753 23.2081C83.7624 24.1728 82.7704 30.8617 78.9049 34.0542C78.3119 34.5445 77.7458 34.2834 78.01 33.6331C78.878 31.4906 80.8242 26.6884 79.9023 25.5212Z" fill="white"/>
<path d="M71.6643 4.07944V1.29728C71.6643 0.876229 71.9878 0.59375 72.3759 0.59375H84.9751C85.3795 0.59375 85.703 0.881559 85.703 1.29728V3.6797C85.6976 4.07944 85.3579 4.60176 84.7541 5.42788L78.2254 14.6431C80.6514 14.5845 83.2122 14.9416 85.4118 16.1674C85.9078 16.4446 86.0426 16.8496 86.0803 17.2494V20.2181C86.0803 20.6231 85.6275 21.0975 85.1531 20.8523C81.2768 18.843 76.1282 18.6245 71.8422 20.8736C71.4055 21.1081 70.9473 20.6391 70.9473 20.2341V17.4146C70.9473 16.9616 70.9527 16.1887 71.4109 15.5012L78.9747 4.77764H72.3921C71.9878 4.77764 71.6643 4.49516 71.6643 4.07944Z" fill="white"/>
<path d="M25.7043 21.4385H21.8712C21.5046 21.4119 21.2135 21.14 21.1865 20.7936V1.34517C21.1865 0.956098 21.5154 0.646967 21.9251 0.646967H25.4995C25.8715 0.662946 26.168 0.945435 26.1949 1.2972V3.83952H26.265C27.1977 1.38248 28.9498 0.236572 31.3112 0.236572C33.7103 0.236572 35.209 1.38248 36.2872 3.83952C37.2145 1.38248 39.3225 0.236572 41.5814 0.236572C43.188 0.236572 44.9455 0.892137 46.0184 2.36316C47.2314 3.99941 46.9834 6.3765 46.9834 8.46045L46.978 20.735C46.978 21.1241 46.6491 21.4385 46.2394 21.4385H42.4116C42.0289 21.4119 41.7216 21.1081 41.7216 20.735V10.4271C41.7216 9.60636 41.7971 7.55972 41.6138 6.78156C41.328 5.47577 40.4708 5.10801 39.3602 5.10801C38.4329 5.10801 37.4625 5.72093 37.069 6.70162C36.6754 7.6823 36.7132 9.32388 36.7132 10.4271V20.735C36.7132 21.1241 36.3843 21.4385 35.9746 21.4385H32.1468C31.7587 21.4119 31.4567 21.1081 31.4567 20.735L31.4514 10.4271C31.4514 8.25792 31.8126 5.06537 29.09 5.06537C26.3351 5.06537 26.4429 8.17797 26.4429 10.4271V20.735C26.4429 21.1241 26.1141 21.4385 25.7043 21.4385Z" fill="white"/>
<path d="M96.5502 0.236572C102.238 0.236572 105.316 5.06537 105.316 11.2053C105.316 17.1374 101.914 21.8436 96.5502 21.8436C90.965 21.8436 87.9243 17.0148 87.9243 10.9974C87.9243 4.94278 91.0027 0.236572 96.5502 0.236572ZM96.5826 4.20727C93.7576 4.20727 93.5797 8.01275 93.5797 10.3845C93.5797 12.7616 93.5419 17.8356 96.5502 17.8356C99.5208 17.8356 99.6609 13.7423 99.6609 11.2479C99.6609 9.60636 99.5909 7.64499 99.0895 6.08869C98.6582 4.73492 97.801 4.20727 96.5826 4.20727Z" fill="white"/>
<path d="M112.692 21.4385H108.875C108.492 21.4119 108.185 21.1081 108.185 20.735L108.179 1.28121C108.212 0.924116 108.53 0.646967 108.918 0.646967H112.471C112.805 0.662946 113.08 0.886809 113.155 1.19061V4.16463H113.225C114.298 1.50506 115.802 0.236572 118.449 0.236572C120.169 0.236572 121.846 0.8495 122.924 2.52838C123.927 4.08469 123.927 6.70162 123.927 8.58303V20.8256C123.884 21.1667 123.566 21.4385 123.188 21.4385H119.344C118.994 21.4119 118.703 21.156 118.665 20.8256V10.2619C118.665 8.13533 118.913 5.02273 116.266 5.02273C115.333 5.02273 114.476 5.64099 114.05 6.57903C113.511 7.76758 113.441 8.95079 113.441 10.2619V20.735C113.436 21.1241 113.101 21.4385 112.692 21.4385Z" fill="white"/>
<path d="M61.6207 12.1487V11.3279C58.8496 11.3279 55.9222 11.9142 55.9222 15.144C55.9222 16.7803 56.7794 17.8889 58.2512 17.8889C59.3295 17.8889 60.2945 17.2333 60.9037 16.1674C61.6585 14.8562 61.6207 13.625 61.6207 12.1487ZM65.4862 21.3852C65.2328 21.6091 64.8662 21.6251 64.5805 21.4758C63.3082 20.4312 63.0817 19.9462 62.3809 18.9495C60.2783 21.0708 58.7903 21.705 56.0624 21.705C52.8385 21.705 50.3262 19.7383 50.3262 15.7996C50.3262 12.7243 52.0136 10.6297 54.4127 9.60638C56.4937 8.70031 59.3995 8.54042 61.6207 8.28992V7.79958C61.6207 6.89884 61.6908 5.83288 61.1571 5.05473C60.688 4.35653 59.7931 4.06872 59.006 4.06872C57.545 4.06872 56.2403 4.80956 55.9222 6.34454C55.8575 6.68565 55.6041 7.02143 55.2591 7.03742L51.5392 6.64301C51.2265 6.57372 50.8815 6.32322 50.9677 5.84887C51.8249 1.39316 55.8953 0.0500488 59.5397 0.0500488C61.4051 0.0500488 63.8419 0.54039 65.3137 1.9368C67.179 3.65832 67.0011 5.95546 67.0011 8.45514V14.3606C67.0011 16.1354 67.7451 16.9135 68.446 17.8729C68.694 18.214 68.7479 18.6244 68.4352 18.8802C67.6535 19.5251 66.2625 20.7243 65.497 21.3959L65.4862 21.3852Z" fill="white"/>
<path d="M11.3693 12.1487V11.3279C8.59818 11.3279 5.67076 11.9142 5.67076 15.144C5.67076 16.7803 6.52796 17.8889 7.99976 17.8889C9.078 17.8889 10.043 17.2333 10.6522 16.1674C11.407 14.8562 11.3693 13.625 11.3693 12.1487ZM15.2347 21.3852C14.9814 21.6091 14.6147 21.6251 14.329 21.4758C13.0567 20.4312 12.8303 19.9462 12.1294 18.9495C10.0268 21.0708 8.53888 21.705 5.81093 21.705C2.587 21.705 0.074707 19.7383 0.074707 15.7996C0.074707 12.7243 1.76215 10.6297 4.16123 9.60638C6.24223 8.70031 9.14808 8.54042 11.3693 8.28992V7.79958C11.3693 6.89884 11.4393 5.83288 10.9056 5.05473C10.4366 4.35653 9.54164 4.06872 8.75452 4.06872C7.29351 4.06872 5.98884 4.80956 5.67076 6.34454C5.60607 6.68565 5.35268 7.02143 5.00765 7.03742L1.28773 6.64301C0.975035 6.57372 0.629999 6.32322 0.716258 5.84887C1.57346 1.39316 5.64381 0.0500488 9.28825 0.0500488C11.1536 0.0500488 13.5904 0.54039 15.0622 1.9368C16.9276 3.65832 16.7497 5.95546 16.7497 8.45514V14.3606C16.7497 16.1354 17.4936 16.9135 18.1945 17.8729C18.4425 18.214 18.4964 18.6244 18.1837 18.8802C17.402 19.5251 16.0111 20.7243 15.2455 21.3959L15.2347 21.3852Z" fill="white"/>
</g>
<defs>
<clipPath id="clip0_997_169">
<rect width="124" height="37" fill="white"/>
</clipPath>
</defs>
</svg>
