<svg width="512" height="512" viewBox="0 0 512 512" fill="none" xmlns="http://www.w3.org/2000/svg">
<g clip-path="url(#clip0_991_170)">
<path d="M18.4803 15.4825C19.3103 15.4754 20.1404 15.4684 20.9956 15.4612C23.7265 15.4437 26.4564 15.4552 29.1873 15.4688C31.0925 15.4661 32.9977 15.4622 34.9029 15.4572C38.8908 15.4513 42.8782 15.4598 46.866 15.4785C51.9706 15.5013 57.0744 15.4882 62.1789 15.4643C66.1115 15.4498 70.0439 15.4544 73.9765 15.4648C75.8584 15.4674 77.7402 15.4642 79.622 15.4549C82.2549 15.4447 84.8865 15.4602 87.5194 15.4825C88.2925 15.4744 89.0657 15.4663 89.8623 15.4579C95.0605 15.539 97.9814 16.7435 102 20C105.304 23.4752 106.716 26.4465 107.93 31.0586C108.247 32.2395 108.565 33.4203 108.892 34.637C109.217 35.8912 109.541 37.1453 109.875 38.4375C110.219 39.7366 110.565 41.0353 110.912 42.3338C111.612 44.9578 112.305 47.5833 112.995 50.21C113.921 53.7026 114.877 57.1848 115.851 60.6641C116.131 61.6664 116.411 62.6688 116.7 63.7015C117.221 65.5672 117.746 67.4323 118.273 69.2967C118.502 70.1282 118.732 70.9597 118.969 71.8164C119.169 72.5326 119.369 73.2488 119.576 73.9866C120 76 120 76 120 80C120.806 79.9985 121.612 79.997 122.442 79.9954C170.191 79.906 217.939 79.8373 265.687 79.7958C271.417 79.7908 277.148 79.7856 282.878 79.7803C284.019 79.7793 285.16 79.7782 286.335 79.7771C304.819 79.7597 323.303 79.7282 341.787 79.6914C360.746 79.654 379.705 79.6318 398.665 79.6237C410.368 79.6182 422.071 79.6008 433.775 79.5684C441.795 79.5473 449.815 79.5408 457.836 79.546C462.466 79.5486 467.097 79.5446 471.727 79.5232C475.965 79.5038 480.203 79.5027 484.441 79.5164C485.975 79.5181 487.509 79.513 489.044 79.5005C491.128 79.4845 493.211 79.4931 495.296 79.5078C497.033 79.5056 497.033 79.5056 498.805 79.5032C503.819 80.2829 506.9 82.8715 510.375 86.4375C514.986 96.5472 511.166 109.473 509.218 120.03C508.918 121.702 508.619 123.374 508.321 125.046C507.515 129.55 506.695 134.051 505.872 138.552C505.009 143.28 504.157 148.01 503.303 152.741C501.868 160.677 500.424 168.612 498.975 176.545C497.302 185.7 495.647 194.858 493.999 204.018C492.58 211.906 491.152 219.792 489.716 227.677C488.861 232.376 488.008 237.076 487.164 241.777C486.37 246.195 485.565 250.611 484.751 255.025C484.455 256.64 484.163 258.255 483.875 259.871C480.409 279.306 480.409 279.306 474.75 285.438C467.899 289.33 460.212 289.417 452.524 289.772C450.817 289.86 450.817 289.86 449.076 289.95C445.274 290.145 441.471 290.329 437.667 290.512C434.937 290.649 432.207 290.788 429.476 290.927C422.837 291.263 416.197 291.591 409.557 291.917C401.822 292.296 394.088 292.684 386.353 293.073C372.553 293.766 358.752 294.451 344.952 295.132C331.563 295.793 318.175 296.458 304.787 297.128C303.963 297.17 303.138 297.211 302.288 297.254C298.972 297.42 295.656 297.586 292.34 297.752C278.035 298.468 263.73 299.181 249.425 299.893C247.11 300.008 244.796 300.124 242.481 300.239C234.377 300.643 226.273 301.045 218.17 301.445C214.819 301.611 211.468 301.777 208.118 301.944C204.486 302.125 200.854 302.304 197.221 302.482C196.163 302.535 195.104 302.588 194.013 302.643C189.337 302.871 184.683 303.066 180 303C180.231 303.718 180.461 304.436 180.699 305.176C182.871 312.068 184.824 318.988 186.644 325.98C186.872 326.852 187.1 327.724 187.335 328.621C187.891 330.747 188.446 332.874 189 335C190.278 335.001 191.555 335.003 192.872 335.004C223.2 335.04 253.529 335.096 283.857 335.178C287.589 335.188 291.322 335.198 295.055 335.208C296.169 335.21 296.169 335.21 297.306 335.213C309.34 335.244 321.373 335.261 333.406 335.273C345.753 335.286 358.1 335.313 370.446 335.355C378.065 335.38 385.684 335.393 393.303 335.391C399.145 335.391 404.986 335.412 410.827 335.441C413.224 335.45 415.621 335.451 418.018 335.446C421.288 335.439 424.556 335.457 427.825 335.481C429.252 335.469 429.252 335.469 430.708 335.458C436.316 335.531 439.558 336.245 444 340C447.628 343.819 448.31 346.883 448.5 352C448.31 357.117 447.628 360.181 444 364C438.568 368.672 433.973 368.568 427.144 368.508C426.049 368.514 424.954 368.52 423.825 368.527C420.154 368.543 416.484 368.53 412.812 368.518C410.181 368.523 407.549 368.53 404.918 368.539C398.512 368.557 392.106 368.553 385.7 368.541C380.493 368.532 375.286 368.531 370.079 368.535C369.338 368.536 368.597 368.537 367.833 368.537C366.327 368.538 364.821 368.54 363.316 368.541C349.197 368.552 335.079 368.539 320.961 368.518C308.849 368.5 296.737 368.503 284.625 368.522C270.557 368.543 256.489 368.551 242.421 368.539C240.921 368.538 239.421 368.537 237.92 368.535C236.813 368.534 236.813 368.534 235.683 368.533C230.483 368.53 225.283 368.536 220.083 368.545C213.084 368.558 206.084 368.549 199.084 368.526C196.513 368.52 193.942 368.522 191.371 368.531C187.865 368.542 184.361 368.528 180.855 368.508C179.323 368.521 179.323 368.521 177.761 368.535C171.997 368.471 168.528 367.936 164 364C160.298 359.464 158.856 354.967 157.432 349.412C157.205 348.562 156.977 347.713 156.743 346.837C155.988 344.009 155.25 341.176 154.512 338.344C153.976 336.324 153.44 334.304 152.902 332.285C151.753 327.959 150.611 323.631 149.474 319.301C147.672 312.436 145.855 305.574 144.035 298.713C141.857 290.499 139.683 282.284 137.513 274.068C133.967 260.64 130.398 247.22 126.805 233.805C126.562 232.9 126.32 231.995 126.07 231.063C124.872 226.59 123.673 222.117 122.474 217.644C120.13 208.898 117.792 200.15 115.453 191.402C115.226 190.554 114.999 189.705 114.765 188.83C108.775 166.426 102.796 144.019 96.8272 121.609C96.0319 118.623 95.2366 115.638 94.4412 112.652C94.2496 111.933 94.058 111.214 93.8606 110.473C91.2816 100.793 88.6907 91.1157 86.0897 81.4414C85.2383 78.2698 84.3873 75.0981 83.5363 71.9263C82.776 69.0972 82.0117 66.2692 81.2471 63.4412C80.8051 61.7942 80.3633 60.1471 79.9217 58.5C79.6234 57.4045 79.6234 57.4045 79.319 56.2869C78.5563 53.4276 77.9998 50.9751 77.9998 48C77.1612 48.0089 76.3227 48.0178 75.4587 48.027C67.5433 48.1072 59.6281 48.1681 51.7124 48.2073C47.6432 48.2281 43.5743 48.2564 39.5052 48.3018C35.5759 48.3454 31.647 48.3692 27.7175 48.3795C26.2208 48.3869 24.7241 48.4013 23.2275 48.423C21.1257 48.4521 19.0252 48.456 16.9232 48.4541C15.7285 48.463 14.5338 48.4719 13.3029 48.4811C8.18221 47.7353 5.12224 45.1815 1.62483 41.5C-0.773201 36.335 -0.753981 31.5998 -0.000165373 26C3.77061 17.8784 9.90639 15.3927 18.4803 15.4825Z" fill="#FEC007"/>
<path d="M18.4803 15.4825C19.3103 15.4754 20.1404 15.4684 20.9956 15.4612C23.7265 15.4437 26.4564 15.4552 29.1873 15.4688C31.0925 15.4661 32.9977 15.4622 34.9029 15.4572C38.8908 15.4513 42.8782 15.4598 46.866 15.4785C51.9706 15.5013 57.0744 15.4882 62.1789 15.4643C66.1115 15.4498 70.0439 15.4544 73.9765 15.4648C75.8584 15.4674 77.7402 15.4642 79.622 15.4549C82.2549 15.4447 84.8865 15.4602 87.5194 15.4825C88.2925 15.4744 89.0657 15.4663 89.8623 15.4579C95.0605 15.539 97.9814 16.7435 102 20C105.304 23.4752 106.716 26.4465 107.93 31.0586C108.406 32.8293 108.406 32.8293 108.892 34.6358C109.216 35.8904 109.541 37.1449 109.875 38.4375C110.221 39.7403 110.568 41.0427 110.916 42.3448C111.618 44.9724 112.313 47.6015 113.004 50.232C113.909 53.6568 114.837 57.074 115.781 60.4883C116.052 61.4681 116.323 62.4479 116.602 63.4573C117.1 65.2573 117.598 67.0573 118.097 68.8572C119.337 73.3894 120.45 77.925 121.446 82.5166C124.726 97.2182 128.565 111.813 132.8 126.267C134.993 133.815 136.878 141.427 138.75 149.06C140.362 155.584 142.115 162.049 144 168.5C146.474 176.966 148.647 185.484 150.748 194.05C152.598 201.537 154.66 208.944 156.82 216.348C158.755 223.024 160.46 229.739 162.108 236.49C163.795 243.337 165.726 250.099 167.701 256.868C169.617 263.499 171.306 270.169 172.937 276.875C175.089 285.692 177.516 294.378 180.289 303.021C182.471 309.921 184.305 316.898 186.119 323.902C186.535 325.504 186.535 325.504 186.96 327.138C187.641 329.759 188.321 332.379 189 335C190.278 335.001 191.555 335.003 192.872 335.004C223.2 335.04 253.529 335.096 283.857 335.178C287.589 335.188 291.322 335.198 295.055 335.208C296.169 335.21 296.169 335.21 297.306 335.213C309.34 335.244 321.373 335.261 333.406 335.273C345.753 335.286 358.1 335.313 370.446 335.355C378.065 335.38 385.684 335.393 393.303 335.391C399.145 335.391 404.986 335.412 410.827 335.441C413.224 335.45 415.621 335.451 418.018 335.446C421.288 335.439 424.556 335.457 427.825 335.481C429.252 335.469 429.252 335.469 430.708 335.458C436.316 335.531 439.558 336.245 444 340C447.628 343.819 448.31 346.883 448.5 352C448.31 357.117 447.628 360.181 444 364C438.568 368.672 433.973 368.568 427.144 368.508C426.049 368.514 424.954 368.52 423.825 368.527C420.154 368.543 416.484 368.53 412.812 368.518C410.181 368.523 407.549 368.53 404.918 368.539C398.512 368.557 392.106 368.553 385.7 368.541C380.493 368.532 375.286 368.531 370.079 368.535C369.338 368.536 368.597 368.537 367.833 368.537C366.327 368.538 364.821 368.54 363.316 368.541C349.197 368.552 335.079 368.539 320.961 368.518C308.849 368.5 296.737 368.503 284.625 368.522C270.557 368.543 256.489 368.551 242.421 368.539C240.921 368.538 239.421 368.537 237.92 368.535C236.813 368.534 236.813 368.534 235.683 368.533C230.483 368.53 225.283 368.536 220.083 368.545C213.084 368.558 206.084 368.549 199.084 368.526C196.513 368.52 193.942 368.522 191.371 368.531C187.865 368.542 184.361 368.528 180.855 368.508C179.323 368.521 179.323 368.521 177.761 368.535C171.997 368.471 168.528 367.936 164 364C160.298 359.464 158.856 354.967 157.432 349.412C157.205 348.562 156.977 347.713 156.743 346.837C155.988 344.009 155.25 341.176 154.512 338.344C153.976 336.324 153.44 334.304 152.902 332.285C151.753 327.959 150.611 323.631 149.474 319.301C147.672 312.436 145.855 305.574 144.035 298.713C141.857 290.499 139.683 282.284 137.513 274.068C133.967 260.64 130.398 247.22 126.805 233.805C126.562 232.9 126.32 231.995 126.07 231.063C124.872 226.59 123.673 222.117 122.474 217.644C120.13 208.898 117.792 200.15 115.453 191.402C115.226 190.554 114.999 189.705 114.765 188.83C108.775 166.426 102.796 144.019 96.8272 121.609C96.0319 118.623 95.2366 115.638 94.4412 112.652C94.2496 111.933 94.058 111.214 93.8606 110.473C91.2816 100.793 88.6907 91.1157 86.0897 81.4414C85.2383 78.2698 84.3873 75.0981 83.5363 71.9263C82.776 69.0972 82.0117 66.2692 81.2471 63.4412C80.8051 61.7942 80.3633 60.1471 79.9217 58.5C79.6234 57.4045 79.6234 57.4045 79.319 56.2869C78.5563 53.4276 77.9998 50.9751 77.9998 48C77.1612 48.0089 76.3227 48.0178 75.4587 48.027C67.5433 48.1072 59.6281 48.1681 51.7124 48.2073C47.6432 48.2281 43.5743 48.2564 39.5052 48.3018C35.5759 48.3454 31.647 48.3692 27.7175 48.3795C26.2208 48.3869 24.7241 48.4013 23.2275 48.423C21.1257 48.4521 19.0252 48.456 16.9232 48.4541C15.7285 48.463 14.5338 48.4719 13.3029 48.4811C8.18221 47.7353 5.12224 45.1815 1.62483 41.5C-0.773201 36.335 -0.753981 31.5998 -0.000165373 26C3.77061 17.8784 9.90639 15.3927 18.4803 15.4825Z" fill="#465A63"/>
<path d="M421 404C421.869 404.447 422.737 404.895 423.633 405.356C433.139 410.648 439.041 417.369 444 427C444.416 427.786 444.832 428.573 445.261 429.383C449.796 439.534 449.937 453.619 446.375 464.125C445.637 465.775 444.846 467.403 444 469C443.552 469.869 443.105 470.738 442.644 471.633C437.352 481.14 430.631 487.042 421 492C420.213 492.416 419.427 492.833 418.617 493.262C408.466 497.796 394.381 497.937 383.875 494.375C382.224 493.638 380.597 492.846 379 492C378.131 491.553 377.262 491.105 376.367 490.645C366.86 485.352 360.958 478.631 356 469C355.583 468.214 355.167 467.427 354.738 466.617C350.204 456.466 350.063 442.381 353.625 431.875C354.362 430.225 355.154 428.598 356 427C356.671 425.697 356.671 425.697 357.355 424.367C362.648 414.861 369.369 408.958 379 404C380.179 403.376 380.179 403.376 381.383 402.738C393.201 397.459 409.605 397.967 421 404Z" fill="#455A64"/>
<path d="M229 404C229.869 404.447 230.737 404.895 231.633 405.356C241.139 410.648 247.041 417.369 252 427C252.416 427.786 252.832 428.573 253.261 429.383C257.796 439.534 257.937 453.619 254.375 464.125C253.637 465.775 252.846 467.403 252 469C251.552 469.869 251.105 470.738 250.644 471.633C245.352 481.14 238.631 487.042 229 492C228.213 492.416 227.427 492.833 226.617 493.262C216.466 497.796 202.381 497.937 191.875 494.375C190.224 493.638 188.597 492.846 187 492C186.131 491.553 185.262 491.105 184.367 490.645C174.86 485.352 168.958 478.631 164 469C163.583 468.214 163.167 467.427 162.738 466.617C158.204 456.466 158.063 442.381 161.625 431.875C162.362 430.225 163.154 428.598 164 427C164.671 425.697 164.671 425.697 165.355 424.367C170.648 414.861 177.369 408.958 187 404C188.179 403.376 188.179 403.376 189.383 402.738C201.201 397.459 217.605 397.967 229 404Z" fill="#455A64"/>
<path d="M405.938 144.719C410.936 147.39 414.208 150.624 416 156C416.11 158.278 416.159 160.559 416.177 162.839C416.187 163.876 416.187 163.876 416.197 164.934C416.217 167.222 416.229 169.509 416.239 171.797C416.243 172.58 416.247 173.363 416.251 174.169C416.272 178.314 416.286 182.459 416.295 186.604C416.307 190.875 416.341 195.146 416.381 199.418C416.407 202.71 416.415 206.003 416.419 209.296C416.424 210.87 416.435 212.444 416.454 214.018C416.478 216.227 416.477 218.434 416.47 220.644C416.476 221.898 416.482 223.153 416.488 224.445C415.739 229.907 413.521 233.59 409.438 237.375C405.149 240.235 401.028 240.516 396 240C390.734 238.142 388.206 235.397 385 231C383.844 227.531 383.859 224.807 383.839 221.145C383.834 220.452 383.829 219.759 383.824 219.045C383.81 216.753 383.803 214.46 383.797 212.168C383.791 210.572 383.786 208.977 383.78 207.381C383.769 204.035 383.764 200.688 383.76 197.342C383.755 193.061 383.731 188.781 383.702 184.5C383.683 181.203 383.678 177.907 383.677 174.61C383.674 173.032 383.666 171.454 383.653 169.877C383.635 167.665 383.637 165.455 383.644 163.243C383.64 161.986 383.637 160.73 383.633 159.435C384.105 155.02 385.494 151.651 388.5 148.356C393.801 144.229 399.386 142.288 405.938 144.719Z" fill="#FAF9F8"/>
<path d="M309.938 144.719C314.936 147.39 318.208 150.624 320 156C320.11 158.278 320.159 160.559 320.177 162.839C320.187 163.876 320.187 163.876 320.197 164.934C320.217 167.222 320.229 169.509 320.239 171.797C320.243 172.58 320.247 173.363 320.251 174.169C320.272 178.314 320.286 182.459 320.295 186.604C320.307 190.875 320.341 195.146 320.381 199.418C320.407 202.71 320.415 206.003 320.419 209.296C320.424 210.87 320.435 212.444 320.454 214.018C320.478 216.227 320.477 218.434 320.47 220.644C320.476 221.898 320.482 223.153 320.488 224.445C319.739 229.907 317.521 233.59 313.438 237.375C309.149 240.235 305.028 240.516 300 240C294.734 238.142 292.206 235.397 289 231C287.844 227.531 287.859 224.807 287.839 221.145C287.834 220.452 287.829 219.759 287.824 219.045C287.81 216.753 287.803 214.46 287.797 212.168C287.791 210.572 287.786 208.977 287.78 207.381C287.769 204.035 287.764 200.688 287.76 197.342C287.755 193.061 287.731 188.781 287.702 184.5C287.683 181.203 287.678 177.907 287.677 174.61C287.674 173.032 287.666 171.454 287.653 169.877C287.635 167.665 287.637 165.455 287.644 163.243C287.64 161.986 287.637 160.73 287.633 159.435C288.105 155.02 289.494 151.651 292.5 148.356C297.801 144.229 303.386 142.288 309.938 144.719Z" fill="#FAF9F8"/>
<path d="M213.938 144.719C218.936 147.39 222.208 150.624 224 156C224.11 158.278 224.159 160.559 224.177 162.839C224.187 163.876 224.187 163.876 224.197 164.934C224.217 167.222 224.229 169.509 224.239 171.797C224.243 172.58 224.247 173.363 224.251 174.169C224.272 178.314 224.286 182.459 224.295 186.604C224.307 190.875 224.341 195.146 224.381 199.418C224.407 202.71 224.415 206.003 224.419 209.296C224.424 210.87 224.435 212.444 224.454 214.018C224.478 216.227 224.477 218.434 224.47 220.644C224.476 221.898 224.482 223.153 224.488 224.445C223.739 229.907 221.521 233.59 217.438 237.375C213.149 240.235 209.028 240.516 204 240C198.734 238.142 196.206 235.397 193 231C191.844 227.531 191.859 224.807 191.839 221.145C191.834 220.452 191.829 219.759 191.824 219.045C191.81 216.753 191.803 214.46 191.797 212.168C191.791 210.572 191.786 208.977 191.78 207.381C191.769 204.035 191.764 200.688 191.76 197.342C191.755 193.061 191.731 188.781 191.702 184.5C191.683 181.203 191.678 177.907 191.677 174.61C191.674 173.032 191.666 171.454 191.653 169.877C191.635 167.665 191.637 165.455 191.644 163.243C191.64 161.986 191.637 160.73 191.633 159.435C192.105 155.02 193.494 151.651 196.5 148.356C201.801 144.229 207.386 142.288 213.938 144.719Z" fill="#FAF9F8"/>
</g>
<defs>
<clipPath id="clip0_991_170">
<rect width="512" height="512" fill="white"/>
</clipPath>
</defs>
</svg>
